<svg width="24" height="24" viewBox="0 0 24 24" fill="none" xmlns="http://www.w3.org/2000/svg">
<path d="M16.25 22.5C17.2165 22.5 18 21.7165 18 20.75C18 19.7835 17.2165 19 16.25 19C15.2835 19 14.5 19.7835 14.5 20.75C14.5 21.7165 15.2835 22.5 16.25 22.5Z" fill="#7D7F88"/>
<path d="M8.25 22.5C9.2165 22.5 10 21.7165 10 20.75C10 19.7835 9.2165 19 8.25 19C7.2835 19 6.5 19.7835 6.5 20.75C6.5 21.7165 7.2835 22.5 8.25 22.5Z" fill="#7D7F88"/>
<path d="M4.84 3.94003L4.64 6.39003C4.6 6.86003 4.97 7.25003 5.44 7.25003H20.75C21.17 7.25003 21.52 6.93003 21.55 6.51003C21.68 4.74003 20.33 3.30003 18.56 3.30003H6.27C6.17 2.86003 5.97 2.44003 5.66 2.09003C5.16 1.56003 4.46 1.25003 3.74 1.25003H2C1.59 1.25003 1.25 1.59003 1.25 2.00003C1.25 2.41003 1.59 2.75003 2 2.75003H3.74C4.05 2.75003 4.34 2.88003 4.55 3.10003C4.76 3.33003 4.86 3.63003 4.84 3.94003Z" fill="#7D7F88"/>
<path d="M20.51 8.75003H5.17001C4.75001 8.75003 4.41001 9.07003 4.37001 9.48003L4.01001 13.83C3.87001 15.54 5.21001 17 6.92001 17H18.04C19.54 17 20.86 15.77 20.97 14.27L21.3 9.60003C21.34 9.14003 20.98 8.75003 20.51 8.75003Z" fill="#7D7F88"/>
</svg>
