<svg width="24" height="24" viewBox="0 0 24 24" fill="none" xmlns="http://www.w3.org/2000/svg">
<path d="M22 21.25H2C1.59 21.25 1.25 21.59 1.25 22C1.25 22.41 1.59 22.75 2 22.75H22C22.41 22.75 22.75 22.41 22.75 22C22.75 21.59 22.41 21.25 22 21.25Z" fill="#7D7F88"/>
<path d="M17 2.00003H7C4 2.00003 3 3.79003 3 6.00003V22H9V15.94C9 15.42 9.42 15 9.94 15H14.07C14.58 15 15.01 15.42 15.01 15.94V22H21.01V6.00003C21 3.79003 20 2.00003 17 2.00003ZM14.5 9.25003H12.75V11C12.75 11.41 12.41 11.75 12 11.75C11.59 11.75 11.25 11.41 11.25 11V9.25003H9.5C9.09 9.25003 8.75 8.91003 8.75 8.50003C8.75 8.09003 9.09 7.75003 9.5 7.75003H11.25V6.00003C11.25 5.59003 11.59 5.25003 12 5.25003C12.41 5.25003 12.75 5.59003 12.75 6.00003V7.75003H14.5C14.91 7.75003 15.25 8.09003 15.25 8.50003C15.25 8.91003 14.91 9.25003 14.5 9.25003Z" fill="#7D7F88"/>
</svg>
