<svg width="24" height="24" viewBox="0 0 24 24" fill="none" xmlns="http://www.w3.org/2000/svg">
<g clip-path="url(#clip0_44_2108)">
<path d="M11.9989 7.47897C11.9985 7.46542 11.998 7.45187 11.9969 7.43823C11.9957 7.42454 11.994 7.41104 11.9922 7.39758C11.9912 7.39062 11.9909 7.38371 11.9898 7.37671L11.2398 2.87671C11.2237 2.77951 11.1885 2.68644 11.1364 2.60282C11.0843 2.5192 11.0162 2.44667 10.936 2.38938C10.8559 2.33208 10.7652 2.29115 10.6692 2.26891C10.5732 2.24667 10.4738 2.24356 10.3766 2.25976C10.2794 2.27596 10.1864 2.31115 10.1028 2.36333C10.0192 2.4155 9.9467 2.48364 9.88946 2.56384C9.83222 2.64404 9.79134 2.73473 9.76916 2.83073C9.74699 2.92674 9.74394 3.02617 9.76021 3.12335L10.3646 6.75003H8.625V3.00003C8.625 2.80112 8.54598 2.61035 8.40533 2.4697C8.26468 2.32905 8.07391 2.25003 7.875 2.25003C7.67609 2.25003 7.48532 2.32905 7.34467 2.4697C7.20402 2.61035 7.125 2.80112 7.125 3.00003V6.75003H5.38536L5.98979 3.12335C6.00606 3.02617 6.00301 2.92674 5.98083 2.83073C5.95866 2.73473 5.91778 2.64404 5.86053 2.56384C5.80329 2.48364 5.73081 2.4155 5.64722 2.36333C5.56364 2.31115 5.47059 2.27596 5.3734 2.25976C5.27621 2.24356 5.17678 2.24667 5.08079 2.26891C4.9848 2.29115 4.89413 2.33208 4.81397 2.38938C4.73381 2.44667 4.66572 2.5192 4.6136 2.60282C4.56148 2.68644 4.52635 2.77951 4.51021 2.87671L3.76021 7.37671C3.75906 7.38371 3.75879 7.39062 3.75778 7.39758C3.75595 7.41104 3.75426 7.42454 3.75311 7.43823C3.75197 7.45187 3.75146 7.46542 3.75105 7.47897C3.75087 7.48602 3.75 7.49293 3.75 7.50003C3.75 7.50671 3.75046 7.51326 3.7505 7.5199C3.75064 7.52452 3.75064 7.5291 3.75087 7.53368C3.75993 8.49123 4.1014 9.4159 4.71687 10.1495C5.33235 10.8831 6.18359 11.3801 7.125 11.5554V21C7.125 21.1989 7.20402 21.3897 7.34467 21.5304C7.48532 21.671 7.67609 21.75 7.875 21.75C8.07391 21.75 8.26468 21.671 8.40533 21.5304C8.54598 21.3897 8.625 21.1989 8.625 21V11.5554C9.56641 11.3801 10.4177 10.8831 11.0331 10.1495C11.6486 9.4159 11.9901 8.49123 11.9991 7.53368C11.9994 7.5291 11.9994 7.52452 11.9995 7.51989C11.9995 7.51326 12 7.50671 12 7.50003C12 7.49293 11.9991 7.48602 11.9989 7.47897Z" fill="#7D7F88"/>
<path d="M19.8743 2.98675C19.8741 2.97128 19.8732 2.95581 19.872 2.94029C19.8712 2.92976 19.8702 2.91932 19.8689 2.90893C19.8673 2.89598 19.8653 2.88302 19.863 2.87007C19.8607 2.85702 19.8582 2.84411 19.8553 2.83134C19.8529 2.82118 19.8503 2.81106 19.8475 2.80094C19.8433 2.78588 19.8388 2.77105 19.8337 2.75641C19.8323 2.75219 19.8314 2.74794 19.8299 2.74372C19.8282 2.73919 19.826 2.73498 19.8243 2.7305C19.8186 2.7158 19.8125 2.70137 19.806 2.68719C19.8018 2.67794 19.7974 2.66882 19.7928 2.65982C19.7866 2.64773 19.7801 2.63585 19.7733 2.62416C19.7673 2.61367 19.7611 2.60337 19.7546 2.59326C19.7484 2.58374 19.742 2.57449 19.7354 2.56524C19.7274 2.55407 19.7194 2.54313 19.7109 2.53251C19.7046 2.52469 19.6981 2.51713 19.6916 2.50958C19.6823 2.49878 19.6727 2.48811 19.6628 2.4779C19.6558 2.47076 19.6486 2.46389 19.6414 2.45703C19.6314 2.44751 19.6213 2.43817 19.6108 2.42924C19.6024 2.42205 19.5937 2.41528 19.5849 2.40846C19.5751 2.40086 19.5653 2.39331 19.5551 2.38617C19.5447 2.37889 19.534 2.37207 19.5233 2.36534C19.5142 2.35962 19.5051 2.35385 19.4957 2.34854C19.4835 2.34158 19.471 2.33517 19.4583 2.3289C19.4497 2.3246 19.4411 2.32029 19.4322 2.31631C19.419 2.31036 19.4055 2.30496 19.3918 2.29974C19.3827 2.29631 19.3737 2.29287 19.3644 2.28976C19.3513 2.28532 19.338 2.28143 19.3246 2.27772C19.3139 2.27475 19.3032 2.27195 19.2924 2.26944C19.2805 2.26673 19.2685 2.2644 19.2564 2.26225C19.2432 2.25987 19.2301 2.25785 19.2168 2.25621C19.2066 2.25497 19.1963 2.25396 19.186 2.25309C19.1706 2.25186 19.1552 2.25108 19.1397 2.25076C19.1347 2.25067 19.13 2.25003 19.125 2.25003C19.1205 2.25003 19.1161 2.25062 19.1116 2.25071C19.0962 2.25099 19.0808 2.25181 19.0654 2.25305C19.0548 2.25387 19.0443 2.25483 19.0339 2.25611C19.0209 2.25772 19.008 2.25973 18.9951 2.26202C18.982 2.26431 18.9691 2.26683 18.9563 2.2698C18.9462 2.27214 18.9361 2.27479 18.9259 2.27758C18.9109 2.2817 18.8961 2.28623 18.8814 2.29132C18.8772 2.29274 18.8729 2.29365 18.8687 2.29516C18.8595 2.29855 18.8504 2.30258 18.8412 2.30601C18.8377 2.30743 18.8341 2.30866 18.8306 2.31013C16.8985 3.03628 15.3511 5.40663 14.2315 9.35809C13.7237 11.1815 13.3552 13.0408 13.1293 14.9201C13.1181 15.0247 13.1291 15.1305 13.1614 15.2307C13.1938 15.3308 13.2469 15.423 13.3172 15.5013C13.3875 15.5795 13.4735 15.6421 13.5696 15.685C13.6657 15.7279 13.7698 15.75 13.875 15.75H18.375V21C18.375 21.1989 18.454 21.3897 18.5947 21.5304C18.7353 21.671 18.9261 21.75 19.125 21.75C19.3239 21.75 19.5147 21.671 19.6554 21.5304C19.796 21.3897 19.875 21.1989 19.875 21V3.00003C19.875 2.99554 19.8744 2.99124 19.8743 2.98675Z" fill="#7D7F88"/>
</g>
<defs>
<clipPath id="clip0_44_2108">
<rect width="24" height="24" fill="white"/>
</clipPath>
</defs>
</svg>
