<svg width="24" height="24" viewBox="0 0 24 24" fill="none" xmlns="http://www.w3.org/2000/svg">
<g clip-path="url(#clip0_44_2130)">
<path d="M17.625 2.25003H6.375C5.57963 2.25094 4.8171 2.5673 4.25468 3.12971C3.69227 3.69213 3.37591 4.45466 3.375 5.25003V17.25C3.37591 18.0454 3.69227 18.8079 4.25468 19.3703C4.8171 19.9328 5.57963 20.2491 6.375 20.25H7.49998L6.14996 22.05C6.03062 22.2092 5.97938 22.4092 6.00753 22.6061C6.03567 22.8031 6.14088 22.9807 6.30002 23.1001C6.45916 23.2194 6.65919 23.2706 6.85611 23.2425C7.05302 23.2144 7.23069 23.1091 7.35004 22.95L9.37502 20.25H14.625L16.65 22.95C16.7693 23.1091 16.947 23.2144 17.1439 23.2425C17.3408 23.2706 17.5408 23.2194 17.7 23.1001C17.8591 22.9807 17.9643 22.8031 17.9925 22.6061C18.0206 22.4092 17.9694 22.2092 17.85 22.05L16.5 20.25H17.625C18.4204 20.2491 19.1829 19.9328 19.7453 19.3703C20.3077 18.8079 20.6241 18.0454 20.625 17.25V5.25003C20.6241 4.45466 20.3077 3.69213 19.7453 3.12971C19.1829 2.5673 18.4204 2.25094 17.625 2.25003ZM17.625 18.75H6.375C5.97731 18.7496 5.59605 18.5914 5.31484 18.3102C5.03364 18.029 4.87545 17.6477 4.875 17.25V12.75H19.125V17.25C19.1245 17.6477 18.9664 18.029 18.6852 18.3102C18.404 18.5914 18.0227 18.7496 17.625 18.75Z" fill="#7D7F88"/>
<path d="M7.875 17.25C8.49632 17.25 9 16.7464 9 16.125C9 15.5037 8.49632 15 7.875 15C7.25368 15 6.75 15.5037 6.75 16.125C6.75 16.7464 7.25368 17.25 7.875 17.25Z" fill="#7D7F88"/>
<path d="M16.125 17.25C16.7463 17.25 17.25 16.7464 17.25 16.125C17.25 15.5037 16.7463 15 16.125 15C15.5037 15 15 15.5037 15 16.125C15 16.7464 15.5037 17.25 16.125 17.25Z" fill="#7D7F88"/>
</g>
<defs>
<clipPath id="clip0_44_2130">
<rect width="24" height="24" fill="white"/>
</clipPath>
</defs>
</svg>
