<svg width="20" height="20" viewBox="0 0 20 20" fill="none" xmlns="http://www.w3.org/2000/svg">
<path d="M17.1833 10.8916C16.8667 10.8916 16.6 10.65 16.5583 10.3333C16.3583 8.44996 15.3417 6.74163 13.775 5.6583C13.4917 5.4583 13.425 5.07496 13.6167 4.79163C13.8167 4.5083 14.2083 4.44163 14.4833 4.6333C16.35 5.92496 17.55 7.9583 17.7917 10.2C17.825 10.5416 17.5833 10.85 17.2333 10.8916C17.225 10.8916 17.2 10.8916 17.1833 10.8916Z" fill="#292D32"/>
<path d="M2.90835 10.9333C2.88335 10.9333 2.86668 10.9333 2.84168 10.9333C2.50001 10.8917 2.25001 10.5833 2.28335 10.2417C2.50835 8.00001 3.70001 5.97501 5.54168 4.66668C5.82501 4.46668 6.21668 4.53334 6.41668 4.81668C6.61668 5.10001 6.55001 5.49168 6.26668 5.69168C4.71668 6.78334 3.71668 8.49168 3.52501 10.375C3.50001 10.6917 3.22501 10.9333 2.90835 10.9333Z" fill="#292D32"/>
<path d="M10.05 18.8417C8.81666 18.8417 7.64166 18.5584 6.54166 18.0084C6.23332 17.8501 6.10832 17.4751 6.26666 17.1667C6.42499 16.8584 6.79999 16.7334 7.10832 16.8917C8.90832 17.8001 11.075 17.8167 12.8917 16.9417C13.2 16.7917 13.575 16.9251 13.725 17.2334C13.875 17.5417 13.7417 17.9167 13.4333 18.0667C12.3667 18.5834 11.2333 18.8417 10.05 18.8417Z" fill="#292D32"/>
<path d="M10.05 7.03336C8.425 7.03336 7.10834 5.71669 7.10834 4.09169C7.10834 2.46669 8.425 1.15002 10.05 1.15002C11.675 1.15002 12.9917 2.46669 12.9917 4.09169C12.9917 5.71669 11.6667 7.03336 10.05 7.03336ZM10.05 2.40836C9.11667 2.40836 8.35834 3.16669 8.35834 4.10002C8.35834 5.03336 9.11667 5.79169 10.05 5.79169C10.9833 5.79169 11.7417 5.03336 11.7417 4.10002C11.7417 3.16669 10.975 2.40836 10.05 2.40836Z" fill="#292D32"/>
<path d="M4.02499 17.225C2.39999 17.225 1.08333 15.9083 1.08333 14.2833C1.08333 12.6667 2.39999 11.3417 4.02499 11.3417C5.64999 11.3417 6.96666 12.6583 6.96666 14.2833C6.96666 15.9 5.64999 17.225 4.02499 17.225ZM4.02499 12.5917C3.09166 12.5917 2.33333 13.35 2.33333 14.2833C2.33333 15.2167 3.09166 15.975 4.02499 15.975C4.95833 15.975 5.71666 15.2167 5.71666 14.2833C5.71666 13.35 4.95833 12.5917 4.02499 12.5917Z" fill="#292D32"/>
<path d="M15.975 17.225C14.35 17.225 13.0333 15.9083 13.0333 14.2833C13.0333 12.6667 14.35 11.3417 15.975 11.3417C17.6 11.3417 18.9167 12.6583 18.9167 14.2833C18.9083 15.9 17.5917 17.225 15.975 17.225ZM15.975 12.5917C15.0417 12.5917 14.2833 13.35 14.2833 14.2833C14.2833 15.2167 15.0417 15.975 15.975 15.975C16.9083 15.975 17.6667 15.2167 17.6667 14.2833C17.6583 13.35 16.9083 12.5917 15.975 12.5917Z" fill="#292D32"/>
</svg>
