<svg width="22" height="22" viewBox="0 0 22 22" fill="none" xmlns="http://www.w3.org/2000/svg">
<path d="M19.3875 5.65585C19.0117 5.45419 18.2233 5.24335 17.1508 5.99502L15.8033 6.94835C15.7025 4.09752 14.465 2.97919 11.4583 2.97919H5.95833C2.82333 2.97919 1.60417 4.19835 1.60417 7.33335V14.6667C1.60417 16.775 2.75 19.0209 5.95833 19.0209H11.4583C14.465 19.0209 15.7025 17.9025 15.8033 15.0517L17.1508 16.005C17.7192 16.4084 18.2142 16.5367 18.6083 16.5367C18.9475 16.5367 19.2133 16.4359 19.3875 16.3442C19.7633 16.1517 20.3958 15.6292 20.3958 14.3184V7.68169C20.3958 6.37085 19.7633 5.84835 19.3875 5.65585ZM10.0833 10.4317C9.13917 10.4317 8.36 9.66169 8.36 8.70835C8.36 7.75502 9.13917 6.98502 10.0833 6.98502C11.0275 6.98502 11.8067 7.75502 11.8067 8.70835C11.8067 9.66169 11.0275 10.4317 10.0833 10.4317Z" fill="url(#paint0_linear_44_1957)"/>
<defs>
<linearGradient id="paint0_linear_44_1957" x1="1.60417" y1="3.80893" x2="16.3121" y2="21.3573" gradientUnits="userSpaceOnUse">
<stop stop-color="#917AFD"/>
<stop offset="1" stop-color="#6246EA"/>
</linearGradient>
</defs>
</svg>
