<svg width="19" height="19" viewBox="0 0 19 19" fill="none" xmlns="http://www.w3.org/2000/svg">
<path d="M10.0541 13.3634H10.6083C11.5187 13.3634 12.2629 12.6192 12.2629 11.7088V11.1546H10.0541V13.3634Z" fill="#7D7F88"/>
<path d="M6.73713 11.7088C6.73713 12.6192 7.4813 13.3634 8.39171 13.3634H8.94588V11.1546H6.73713V11.7088Z" fill="#7D7F88"/>
<path d="M6.73713 9.49998V10.0542H8.94588V7.8454H8.39171C7.4813 7.8454 6.73713 8.58957 6.73713 9.49998Z" fill="#7D7F88"/>
<path d="M15.857 5.39919L11.305 2.20877C10.062 1.33794 8.16204 1.38544 6.96662 2.31169L3.00037 5.4071C2.20079 6.0246 1.58329 7.29127 1.58329 8.28877V13.7513C1.58329 15.77 3.22204 17.4167 5.23287 17.4167H13.7591C15.77 17.4167 17.4087 15.7779 17.4087 13.7592V8.39169C17.4166 7.32294 16.7279 6.00877 15.857 5.39919ZM13.3633 11.7088C13.3633 13.2288 12.1204 14.4717 10.6004 14.4717H8.39162C6.87162 14.4717 5.6287 13.2367 5.6287 11.7088V9.50002C5.6287 7.98002 6.87162 6.7371 8.39162 6.7371H10.6004C12.1204 6.7371 13.3633 7.9721 13.3633 9.50002V11.7088Z" fill="#7D7F88"/>
<path d="M10.6083 7.8454H10.0541V10.0542H12.2629V9.49998C12.2629 8.58957 11.5187 7.8454 10.6083 7.8454Z" fill="#7D7F88"/>
</svg>
