<svg width="72" height="72" viewBox="0 0 72 72" fill="none" xmlns="http://www.w3.org/2000/svg">
<g filter="url(#filter0_d_44_2155)">
<rect x="16" y="12" width="40" height="40" rx="10" fill="white"/>
<rect x="16.25" y="12.25" width="39.5" height="39.5" rx="9.75" stroke="#E3E3E7" stroke-width="0.5"/>
</g>
<path d="M40.5833 22.8333H31.4167C28.8867 22.8333 26.8333 24.8775 26.8333 27.3983V32.88V33.7966C26.8333 36.3175 28.8867 38.3616 31.4167 38.3616H32.7917C33.0392 38.3616 33.3692 38.5266 33.525 38.7283L34.9 40.5525C35.505 41.3591 36.495 41.3591 37.1 40.5525L38.475 38.7283C38.6492 38.4991 38.9242 38.3616 39.2083 38.3616H40.5833C43.1133 38.3616 45.1667 36.3175 45.1667 33.7966V27.3983C45.1667 24.8775 43.1133 22.8333 40.5833 22.8333ZM36.9167 33.6041H31.4167C31.0408 33.6041 30.7292 33.2925 30.7292 32.9166C30.7292 32.5408 31.0408 32.2291 31.4167 32.2291H36.9167C37.2925 32.2291 37.6042 32.5408 37.6042 32.9166C37.6042 33.2925 37.2925 33.6041 36.9167 33.6041ZM40.5833 29.0208H31.4167C31.0408 29.0208 30.7292 28.7091 30.7292 28.3333C30.7292 27.9575 31.0408 27.6458 31.4167 27.6458H40.5833C40.9592 27.6458 41.2708 27.9575 41.2708 28.3333C41.2708 28.7091 40.9592 29.0208 40.5833 29.0208Z" fill="#7D7F88"/>
<defs>
<filter id="filter0_d_44_2155" x="0" y="0" width="72" height="72" filterUnits="userSpaceOnUse" color-interpolation-filters="sRGB">
<feFlood flood-opacity="0" result="BackgroundImageFix"/>
<feColorMatrix in="SourceAlpha" type="matrix" values="0 0 0 0 0 0 0 0 0 0 0 0 0 0 0 0 0 0 127 0" result="hardAlpha"/>
<feOffset dy="4"/>
<feGaussianBlur stdDeviation="8"/>
<feComposite in2="hardAlpha" operator="out"/>
<feColorMatrix type="matrix" values="0 0 0 0 0.270833 0 0 0 0 0.270833 0 0 0 0 0.270833 0 0 0 0.15 0"/>
<feBlend mode="normal" in2="BackgroundImageFix" result="effect1_dropShadow_44_2155"/>
<feBlend mode="normal" in="SourceGraphic" in2="effect1_dropShadow_44_2155" result="shape"/>
</filter>
</defs>
</svg>
