<svg width="72" height="72" viewBox="0 0 72 72" fill="none" xmlns="http://www.w3.org/2000/svg">
<g filter="url(#filter0_d_44_2163)">
<rect x="16" y="12" width="40" height="40" rx="10" fill="white"/>
<rect x="16.25" y="12.25" width="39.5" height="39.5" rx="9.75" stroke="#E3E3E7" stroke-width="0.5"/>
</g>
<g clip-path="url(#clip0_44_2163)">
<path d="M44.0757 35.6148L40.0506 33.8898C39.8404 33.7993 39.6109 33.7629 39.3831 33.7838C39.1553 33.8047 38.9363 33.8823 38.7461 34.0096L36.594 35.4442C35.2787 34.8045 34.2141 33.7446 33.5686 32.4321L33.5687 32.4319L34.9983 30.2476C35.1227 30.0579 35.1982 29.8404 35.218 29.6145C35.2378 29.3885 35.2013 29.1612 35.1118 28.9528L33.3851 24.9242C33.2676 24.6508 33.0646 24.4227 32.8067 24.2743C32.5487 24.1258 32.2495 24.0649 31.9541 24.1007C30.7929 24.25 29.7259 24.8169 28.9522 25.6955C28.1785 26.5741 27.7512 27.7043 27.75 28.875C27.75 35.6986 33.3014 41.25 40.125 41.25C41.2957 41.2488 42.4259 40.8215 43.3045 40.0478C44.1831 39.2741 44.75 38.207 44.8993 37.0459C44.935 36.7504 44.874 36.4513 44.7256 36.1933C44.5771 35.9354 44.3491 35.7324 44.0757 35.6148Z" fill="#7D7F88"/>
</g>
<defs>
<filter id="filter0_d_44_2163" x="0" y="0" width="72" height="72" filterUnits="userSpaceOnUse" color-interpolation-filters="sRGB">
<feFlood flood-opacity="0" result="BackgroundImageFix"/>
<feColorMatrix in="SourceAlpha" type="matrix" values="0 0 0 0 0 0 0 0 0 0 0 0 0 0 0 0 0 0 127 0" result="hardAlpha"/>
<feOffset dy="4"/>
<feGaussianBlur stdDeviation="8"/>
<feComposite in2="hardAlpha" operator="out"/>
<feColorMatrix type="matrix" values="0 0 0 0 0.270833 0 0 0 0 0.270833 0 0 0 0 0.270833 0 0 0 0.15 0"/>
<feBlend mode="normal" in2="BackgroundImageFix" result="effect1_dropShadow_44_2163"/>
<feBlend mode="normal" in="SourceGraphic" in2="effect1_dropShadow_44_2163" result="shape"/>
</filter>
<clipPath id="clip0_44_2163">
<rect width="22" height="22" fill="white" transform="translate(25 22)"/>
</clipPath>
</defs>
</svg>
