<svg width="72" height="72" viewBox="0 0 72 72" fill="none" xmlns="http://www.w3.org/2000/svg">
<g filter="url(#filter0_d_44_3139)">
<rect x="16" y="12" width="40" height="40" rx="10" fill="#FDFDFD"/>
<rect x="16.25" y="12.25" width="39.5" height="39.5" rx="9.75" stroke="#E3E3E7" stroke-width="0.5"/>
<path d="M43.425 29.4516C41.7659 29.4516 41.0875 28.2783 41.9125 26.8391C42.3892 26.005 42.105 24.9416 41.2709 24.465L39.685 23.5575C38.9609 23.1266 38.0259 23.3833 37.595 24.1075L37.4942 24.2816C36.6692 25.7208 35.3125 25.7208 34.4784 24.2816L34.3775 24.1075C33.965 23.3833 33.03 23.1266 32.3059 23.5575L30.72 24.465C29.8859 24.9416 29.6017 26.0141 30.0784 26.8483C30.9125 28.2783 30.2342 29.4516 28.575 29.4516C27.6217 29.4516 26.8334 30.2308 26.8334 31.1933V32.8066C26.8334 33.76 27.6125 34.5483 28.575 34.5483C30.2342 34.5483 30.9125 35.7216 30.0784 37.1608C29.6017 37.995 29.8859 39.0583 30.72 39.535L32.3059 40.4425C33.03 40.8733 33.965 40.6166 34.3959 39.8925L34.4967 39.7183C35.3217 38.2791 36.6784 38.2791 37.5125 39.7183L37.6134 39.8925C38.0442 40.6166 38.9792 40.8733 39.7034 40.4425L41.2892 39.535C42.1234 39.0583 42.4075 37.9858 41.9309 37.1608C41.0967 35.7216 41.775 34.5483 43.4342 34.5483C44.3875 34.5483 45.1759 33.7691 45.1759 32.8066V31.1933C45.1667 30.24 44.3875 29.4516 43.425 29.4516ZM36 34.9791C34.3592 34.9791 33.0209 33.6408 33.0209 32C33.0209 30.3591 34.3592 29.0208 36 29.0208C37.6409 29.0208 38.9792 30.3591 38.9792 32C38.9792 33.6408 37.6409 34.9791 36 34.9791Z" fill="#292D32"/>
</g>
<defs>
<filter id="filter0_d_44_3139" x="0" y="0" width="72" height="72" filterUnits="userSpaceOnUse" color-interpolation-filters="sRGB">
<feFlood flood-opacity="0" result="BackgroundImageFix"/>
<feColorMatrix in="SourceAlpha" type="matrix" values="0 0 0 0 0 0 0 0 0 0 0 0 0 0 0 0 0 0 127 0" result="hardAlpha"/>
<feOffset dy="4"/>
<feGaussianBlur stdDeviation="8"/>
<feComposite in2="hardAlpha" operator="out"/>
<feColorMatrix type="matrix" values="0 0 0 0 0.270833 0 0 0 0 0.270833 0 0 0 0 0.270833 0 0 0 0.15 0"/>
<feBlend mode="normal" in2="BackgroundImageFix" result="effect1_dropShadow_44_3139"/>
<feBlend mode="normal" in="SourceGraphic" in2="effect1_dropShadow_44_3139" result="shape"/>
</filter>
</defs>
</svg>
