<svg width="72" height="72" viewBox="0 0 72 72" fill="none" xmlns="http://www.w3.org/2000/svg">
<g filter="url(#filter0_d_44_3153)">
<rect x="16" y="12" width="40" height="40" rx="10" fill="#FDFDFD"/>
<rect x="16.25" y="12.25" width="39.5" height="39.5" rx="9.75" stroke="#E3E3E7" stroke-width="0.5"/>
<path d="M45.1667 27.9208C45.1667 28.5258 44.6717 29.0208 44.0667 29.0208H27.9334C27.3284 29.0208 26.8334 28.5258 26.8334 27.9208V27.9116C26.8334 25.8125 28.5292 24.1166 30.6284 24.1166H41.3625C43.4617 24.1166 45.1667 25.8216 45.1667 27.9208Z" fill="#1A1E25"/>
<path d="M26.8334 31.4958V36.0883C26.8334 38.1875 28.5292 39.8833 30.6284 39.8833H41.3625C43.4617 39.8833 45.1667 38.1783 45.1667 36.0791V31.4958C45.1667 30.8908 44.6717 30.3958 44.0667 30.3958H27.9334C27.3284 30.3958 26.8334 30.8908 26.8334 31.4958ZM32.3334 36.8125H30.5C30.1242 36.8125 29.8125 36.5008 29.8125 36.125C29.8125 35.7491 30.1242 35.4375 30.5 35.4375H32.3334C32.7092 35.4375 33.0209 35.7491 33.0209 36.125C33.0209 36.5008 32.7092 36.8125 32.3334 36.8125ZM38.2917 36.8125H34.625C34.2492 36.8125 33.9375 36.5008 33.9375 36.125C33.9375 35.7491 34.2492 35.4375 34.625 35.4375H38.2917C38.6675 35.4375 38.9792 35.7491 38.9792 36.125C38.9792 36.5008 38.6675 36.8125 38.2917 36.8125Z" fill="#1A1E25"/>
</g>
<defs>
<filter id="filter0_d_44_3153" x="0" y="0" width="72" height="72" filterUnits="userSpaceOnUse" color-interpolation-filters="sRGB">
<feFlood flood-opacity="0" result="BackgroundImageFix"/>
<feColorMatrix in="SourceAlpha" type="matrix" values="0 0 0 0 0 0 0 0 0 0 0 0 0 0 0 0 0 0 127 0" result="hardAlpha"/>
<feOffset dy="4"/>
<feGaussianBlur stdDeviation="8"/>
<feComposite in2="hardAlpha" operator="out"/>
<feColorMatrix type="matrix" values="0 0 0 0 0.270833 0 0 0 0 0.270833 0 0 0 0 0.270833 0 0 0 0.15 0"/>
<feBlend mode="normal" in2="BackgroundImageFix" result="effect1_dropShadow_44_3153"/>
<feBlend mode="normal" in="SourceGraphic" in2="effect1_dropShadow_44_3153" result="shape"/>
</filter>
</defs>
</svg>
