<svg width="72" height="72" viewBox="0 0 72 72" fill="none" xmlns="http://www.w3.org/2000/svg">
<g filter="url(#filter0_d_44_3168)">
<rect x="16" y="12" width="40" height="40" rx="10" fill="#FDFDFD"/>
<rect x="16.25" y="12.25" width="39.5" height="39.5" rx="9.75" stroke="#E3E3E7" stroke-width="0.5"/>
<path d="M40.5834 23.2275H31.4167C28.6667 23.2275 26.8334 25.0608 26.8334 27.8108V33.3108C26.8334 36.0608 28.6667 37.8941 31.4167 37.8941V39.8466C31.4167 40.58 32.2325 41.02 32.8375 40.6075L36.9167 37.8941H40.5834C43.3334 37.8941 45.1667 36.0608 45.1667 33.3108V27.8108C45.1667 25.0608 43.3334 23.2275 40.5834 23.2275ZM36 34.3833C35.615 34.3833 35.3125 34.0716 35.3125 33.6958C35.3125 33.32 35.615 33.0083 36 33.0083C36.385 33.0083 36.6875 33.32 36.6875 33.6958C36.6875 34.0716 36.385 34.3833 36 34.3833ZM37.155 30.5791C36.7975 30.8175 36.6875 30.9733 36.6875 31.23V31.4225C36.6875 31.7983 36.3759 32.11 36 32.11C35.6242 32.11 35.3125 31.7983 35.3125 31.4225V31.23C35.3125 30.1666 36.0917 29.6441 36.385 29.4425C36.7242 29.2133 36.8342 29.0575 36.8342 28.8191C36.8342 28.3608 36.4584 27.985 36 27.985C35.5417 27.985 35.1659 28.3608 35.1659 28.8191C35.1659 29.195 34.8542 29.5066 34.4784 29.5066C34.1025 29.5066 33.7909 29.195 33.7909 28.8191C33.7909 27.6 34.7809 26.61 36 26.61C37.2192 26.61 38.2092 27.6 38.2092 28.8191C38.2092 29.8641 37.4392 30.3866 37.155 30.5791Z" fill="#1A1E25"/>
</g>
<defs>
<filter id="filter0_d_44_3168" x="0" y="0" width="72" height="72" filterUnits="userSpaceOnUse" color-interpolation-filters="sRGB">
<feFlood flood-opacity="0" result="BackgroundImageFix"/>
<feColorMatrix in="SourceAlpha" type="matrix" values="0 0 0 0 0 0 0 0 0 0 0 0 0 0 0 0 0 0 127 0" result="hardAlpha"/>
<feOffset dy="4"/>
<feGaussianBlur stdDeviation="8"/>
<feComposite in2="hardAlpha" operator="out"/>
<feColorMatrix type="matrix" values="0 0 0 0 0.270833 0 0 0 0 0.270833 0 0 0 0 0.270833 0 0 0 0.15 0"/>
<feBlend mode="normal" in2="BackgroundImageFix" result="effect1_dropShadow_44_3168"/>
<feBlend mode="normal" in="SourceGraphic" in2="effect1_dropShadow_44_3168" result="shape"/>
</filter>
</defs>
</svg>
