<svg width="72" height="72" viewBox="0 0 72 72" fill="none" xmlns="http://www.w3.org/2000/svg">
<g filter="url(#filter0_d_44_3181)">
<rect x="16" y="12" width="40" height="40" rx="10" fill="#FDFDFD"/>
<rect x="16.25" y="12.25" width="39.5" height="39.5" rx="9.75" stroke="#E3E3E7" stroke-width="0.5"/>
<path d="M37.705 24.5383H34.295C30.1792 24.5383 26.8334 27.8842 26.8334 32C26.8334 36.1158 30.1792 39.4617 34.295 39.4617H37.705C41.8209 39.4617 45.1667 36.1158 45.1667 32C45.1667 27.8842 41.8209 24.5383 37.705 24.5383ZM34.295 36.0517C32.0584 36.0517 30.2434 34.2367 30.2434 32C30.2434 29.7633 32.0584 27.9483 34.295 27.9483C36.5317 27.9483 38.3467 29.7633 38.3467 32C38.3467 34.2367 36.5317 36.0517 34.295 36.0517Z" fill="#292D32"/>
</g>
<defs>
<filter id="filter0_d_44_3181" x="0" y="0" width="72" height="72" filterUnits="userSpaceOnUse" color-interpolation-filters="sRGB">
<feFlood flood-opacity="0" result="BackgroundImageFix"/>
<feColorMatrix in="SourceAlpha" type="matrix" values="0 0 0 0 0 0 0 0 0 0 0 0 0 0 0 0 0 0 127 0" result="hardAlpha"/>
<feOffset dy="4"/>
<feGaussianBlur stdDeviation="8"/>
<feComposite in2="hardAlpha" operator="out"/>
<feColorMatrix type="matrix" values="0 0 0 0 0.270833 0 0 0 0 0.270833 0 0 0 0 0.270833 0 0 0 0.15 0"/>
<feBlend mode="normal" in2="BackgroundImageFix" result="effect1_dropShadow_44_3181"/>
<feBlend mode="normal" in="SourceGraphic" in2="effect1_dropShadow_44_3181" result="shape"/>
</filter>
</defs>
</svg>
