<svg width="24" height="24" viewBox="0 0 24 24" fill="none" xmlns="http://www.w3.org/2000/svg">
<rect x="0.5" y="0.5" width="23" height="23" rx="11.5" stroke="#F0F0F0"/>
<circle cx="12" cy="12" r="11" fill="white"/>
<path d="M23 12C23 10.5555 22.7155 9.12506 22.1627 7.79048C21.6099 6.4559 20.7996 5.24327 19.7782 4.22183C18.7567 3.20038 17.5441 2.39013 16.2095 1.83732C14.8749 1.28452 13.4445 1 12 1C10.5555 1 9.12506 1.28452 7.79048 1.83733C6.4559 2.39013 5.24327 3.20038 4.22182 4.22183C3.20038 5.24327 2.39013 6.4559 1.83732 7.79048C1.28452 9.12506 1 10.5555 1 12L12 12H23Z" fill="#FF1717"/>
</svg>
