<svg width="20" height="20" viewBox="0 0 20 20" fill="none" xmlns="http://www.w3.org/2000/svg">
<circle cx="10" cy="10" r="10" fill="url(#paint0_linear_44_2834)"/>
<path d="M7.12829 14.5H13.0697V13.2637H9.12634V13.1992L10.9896 11.4297C12.4779 10 12.9408 9.32617 12.9408 8.33008V8.31836C12.9408 6.92383 11.7572 5.89844 10.0638 5.89844C8.34704 5.89844 7.04626 7.00586 7.04626 8.55273V8.59375H8.46423V8.55273C8.48181 7.73828 9.13806 7.11133 10.0756 7.11133C10.89 7.11133 11.4584 7.65039 11.4642 8.40625V8.41797C11.4642 9.04492 11.224 9.47266 10.1166 10.5566L7.12829 13.4688V14.5Z" fill="white"/>
<defs>
<linearGradient id="paint0_linear_44_2834" x1="-1.52821e-07" y1="1.03448" x2="18.6207" y2="20" gradientUnits="userSpaceOnUse">
<stop stop-color="#917AFD"/>
<stop offset="1" stop-color="#6246EA"/>
</linearGradient>
</defs>
</svg>
