<svg width="14" height="15" viewBox="0 0 14 15" fill="none" xmlns="http://www.w3.org/2000/svg">
<path d="M7.40833 10.3467H7.81666C8.48749 10.3467 9.03582 9.79834 9.03582 9.12751V8.71918H7.40833V10.3467Z" fill="#7D7F88"/>
<path d="M4.96417 9.12751C4.96417 9.79834 5.51251 10.3467 6.18334 10.3467H6.59167V8.71918H4.96417V9.12751Z" fill="#7D7F88"/>
<path d="M4.96417 7.49999V7.90832H6.59167V6.28082H6.18334C5.51251 6.28082 4.96417 6.82916 4.96417 7.49999Z" fill="#7D7F88"/>
<path d="M11.6842 4.47832L8.32999 2.12748C7.41416 1.48582 6.01416 1.52082 5.13332 2.20332L2.21082 4.48415C1.62166 4.93915 1.16666 5.87248 1.16666 6.60748V10.6325C1.16666 12.12 2.37416 13.3333 3.85582 13.3333H10.1383C11.62 13.3333 12.8275 12.1258 12.8275 10.6383V6.68332C12.8333 5.89582 12.3258 4.92748 11.6842 4.47832ZM9.84666 9.12748C9.84666 10.2475 8.93082 11.1633 7.81082 11.1633H6.18332C5.06332 11.1633 4.14749 10.2533 4.14749 9.12748V7.49998C4.14749 6.37998 5.06332 5.46415 6.18332 5.46415H7.81082C8.93082 5.46415 9.84666 6.37415 9.84666 7.49998V9.12748Z" fill="#7D7F88"/>
<path d="M7.81666 6.28082H7.40833V7.90832H9.03582V7.49999C9.03582 6.82916 8.48749 6.28082 7.81666 6.28082Z" fill="#7D7F88"/>
</svg>
