<svg width="32" height="42" viewBox="0 0 32 42" fill="none" xmlns="http://www.w3.org/2000/svg">
<path d="M24.83 8.01002L18.28 2.77002C17 1.75002 15 1.74002 13.73 2.76002L7.18002 8.01002C6.24002 8.76002 5.67002 10.26 5.87002 11.44L7.13002 18.98C7.42002 20.67 8.99002 22 10.7 22H21.3C22.99 22 24.59 20.64 24.88 18.97L26.14 11.43C26.32 10.26 25.75 8.76002 24.83 8.01002ZM16.75 18C16.75 18.41 16.41 18.75 16 18.75C15.59 18.75 15.25 18.41 15.25 18V15C15.25 14.59 15.59 14.25 16 14.25C16.41 14.25 16.75 14.59 16.75 15V18Z" fill="url(#paint0_linear_44_1854)"/>
<path d="M0.794922 39H2.30664V35.332H6.41992V39H7.92578V30.5449H6.41992V34.0605H2.30664V30.5449H0.794922V39ZM12.0215 39.123C13.8438 39.123 15.0273 37.9102 15.0273 35.8945V35.8828C15.0273 33.8789 13.8262 32.6602 12.0156 32.6602C10.2109 32.6602 9.01562 33.8906 9.01562 35.8828V35.8945C9.01562 37.9043 10.1934 39.123 12.0215 39.123ZM12.0273 37.9453C11.0957 37.9453 10.5039 37.2012 10.5039 35.8945V35.8828C10.5039 34.5938 11.1074 33.8438 12.0156 33.8438C12.9414 33.8438 13.5391 34.5879 13.5391 35.8828V35.8945C13.5391 37.1953 12.9473 37.9453 12.0273 37.9453ZM15.9648 39H17.4238V35.1973C17.4238 34.4414 17.916 33.8906 18.6191 33.8906C19.2988 33.8906 19.7207 34.3242 19.7207 35.0215V39H21.1387V35.1621C21.1387 34.4121 21.6191 33.8906 22.3223 33.8906C23.0371 33.8906 23.4355 34.3301 23.4355 35.0977V39H24.8945V34.7344C24.8945 33.4922 24.0918 32.6602 22.8672 32.6602C21.9707 32.6602 21.2324 33.1406 20.9336 33.9141H20.8984C20.6699 33.1172 20.043 32.6602 19.1758 32.6602C18.3555 32.6602 17.7168 33.1055 17.4531 33.7852H17.4238V32.7891H15.9648V39ZM28.7969 39.123C30.4199 39.123 31.334 38.1621 31.5273 37.207L31.5449 37.1426H30.1797L30.168 37.1836C30.0273 37.5996 29.5527 37.9863 28.8262 37.9863C27.877 37.9863 27.2793 37.3418 27.2559 36.252H31.6035V35.7832C31.6035 33.9082 30.502 32.6602 28.7266 32.6602C26.9512 32.6602 25.8086 33.9492 25.8086 35.9062V35.9121C25.8086 37.8867 26.9336 39.123 28.7969 39.123ZM28.7441 33.8027C29.5176 33.8027 30.0801 34.2949 30.1855 35.2793H27.2734C27.3906 34.3242 27.9707 33.8027 28.7441 33.8027Z" fill="url(#paint1_linear_44_1854)"/>
<defs>
<linearGradient id="paint0_linear_44_1854" x1="5.83014" y1="3.03448" x2="24.4423" y2="22.3165" gradientUnits="userSpaceOnUse">
<stop stop-color="#917AFD"/>
<stop offset="1" stop-color="#6246EA"/>
</linearGradient>
<linearGradient id="paint1_linear_44_1854" x1="-2.44514e-07" y1="28.7241" x2="9.45513" y2="50.7361" gradientUnits="userSpaceOnUse">
<stop stop-color="#917AFD"/>
<stop offset="1" stop-color="#6246EA"/>
</linearGradient>
</defs>
</svg>
