<svg width="39" height="42" viewBox="0 0 39 42" fill="none" xmlns="http://www.w3.org/2000/svg">
<path d="M24.72 9.75H16.46C15.9 9.75 15.34 9.56001 14.9 9.20001L12.71 7.45001C12.11 6.97001 11.77 6.26 11.77 5.5C11.77 4.74 12.11 4.01999 12.71 3.54999L14.9 1.79999C15.34 1.44999 15.9 1.25 16.46 1.25H24.72C26.1 1.25 27.22 2.37 27.22 3.75V7.25C27.22 8.63 26.1 9.75 24.72 9.75ZM16.46 2.75C16.23 2.75 16.01 2.83 15.84 2.97L13.65 4.72C13.41 4.91 13.27 5.2 13.27 5.5C13.27 5.8 13.41 6.09 13.65 6.28L15.84 8.03C16.02 8.17 16.24 8.25 16.46 8.25H24.72C25.27 8.25 25.72 7.8 25.72 7.25V3.75C25.72 3.2 25.27 2.75 24.72 2.75H16.46Z" fill="#7D8588"/>
<path d="M22.5598 19.75H14.2998C12.9198 19.75 11.7998 18.63 11.7998 17.25V13.75C11.7998 12.37 12.9198 11.25 14.2998 11.25H22.5598C23.1298 11.25 23.6798 11.44 24.1198 11.8L26.3098 13.55C26.9098 14.03 27.2498 14.74 27.2498 15.5C27.2498 16.26 26.9098 16.98 26.3098 17.45L24.1198 19.2C23.6798 19.56 23.1298 19.75 22.5598 19.75ZM14.2998 12.75C13.7498 12.75 13.2998 13.2 13.2998 13.75V17.25C13.2998 17.8 13.7498 18.25 14.2998 18.25H22.5598C22.7898 18.25 23.0098 18.17 23.1798 18.03L25.3698 16.28C25.6098 16.09 25.7498 15.8 25.7498 15.5C25.7498 15.2 25.6098 14.91 25.3698 14.72L23.1798 12.97C22.9998 12.83 22.7798 12.75 22.5598 12.75H14.2998Z" fill="#7D8588"/>
<path d="M19.5 12.75C19.09 12.75 18.75 12.41 18.75 12V9C18.75 8.59 19.09 8.25 19.5 8.25C19.91 8.25 20.25 8.59 20.25 9V12C20.25 12.41 19.91 12.75 19.5 12.75Z" fill="#7D8588"/>
<path d="M19.5 22.75C19.09 22.75 18.75 22.41 18.75 22V19C18.75 18.59 19.09 18.25 19.5 18.25C19.91 18.25 20.25 18.59 20.25 19V22C20.25 22.41 19.91 22.75 19.5 22.75Z" fill="#7D8588"/>
<path d="M22.5 22.75H16.5C16.09 22.75 15.75 22.41 15.75 22C15.75 21.59 16.09 21.25 16.5 21.25H22.5C22.91 21.25 23.25 21.59 23.25 22C23.25 22.41 22.91 22.75 22.5 22.75Z" fill="#7D8588"/>
<path d="M1.18195 39H6.54914V37.8691H2.49445V35.2441H6.33234V34.1426H2.49445V31.6758H6.54914V30.5449H1.18195V39ZM7.22156 39H8.59266L9.95789 36.7324H9.98719L11.3524 39H12.747L10.743 35.8828L12.7704 32.8359H11.37L10.0458 35.0684H10.0165L8.67469 32.8359H7.25086L9.26063 35.9238L7.22156 39ZM13.5073 41.0508H14.7729V37.9629H14.8022C15.1655 38.6777 15.8745 39.123 16.7475 39.123C18.2944 39.123 19.308 37.8867 19.308 35.9238V35.918C19.308 33.9492 18.3002 32.7188 16.7299 32.7188C15.851 32.7188 15.1713 33.1641 14.8022 33.8965H14.7729V32.8359H13.5073V41.0508ZM16.4018 38.0332C15.4467 38.0332 14.767 37.2012 14.767 35.9238V35.918C14.767 34.6348 15.4409 33.8027 16.4018 33.8027C17.392 33.8027 18.019 34.6055 18.019 35.918V35.9238C18.019 37.2246 17.3979 38.0332 16.4018 38.0332ZM20.2793 39H21.5449V30.5449H20.2793V39ZM25.4341 39.123C27.1978 39.123 28.358 37.9043 28.358 35.918V35.9062C28.358 33.9316 27.1861 32.7188 25.4283 32.7188C23.6763 32.7188 22.5103 33.9375 22.5103 35.9062V35.918C22.5103 37.8984 23.6646 39.123 25.4341 39.123ZM25.44 38.0625C24.4498 38.0625 23.8052 37.2832 23.8052 35.918V35.9062C23.8052 34.5586 24.4556 33.7793 25.4283 33.7793C26.4185 33.7793 27.063 34.5586 27.063 35.9062V35.918C27.063 37.2773 26.4302 38.0625 25.44 38.0625ZM29.2765 39H30.5421V35.3262C30.5421 34.4062 31.046 33.873 31.8605 33.873C32.1066 33.873 32.3292 33.9023 32.4288 33.9434V32.7656C32.3292 32.748 32.171 32.7188 31.9894 32.7188C31.2863 32.7188 30.7706 33.1699 30.5714 33.8906H30.5421V32.8359H29.2765V39ZM35.5153 39.123C37.0095 39.123 37.9587 38.2324 38.1579 37.2539L38.1696 37.1895H36.9684L36.9509 37.2363C36.7927 37.6992 36.2946 38.0859 35.5446 38.0859C34.5368 38.0859 33.8981 37.4062 33.8747 36.2402H38.2399V35.8125C38.2399 33.9609 37.1794 32.7188 35.4509 32.7188C33.7223 32.7188 32.6091 34.0078 32.6091 35.9355V35.9414C32.6091 37.8867 33.7048 39.123 35.5153 39.123ZM35.4567 33.7559C36.2829 33.7559 36.8805 34.2773 36.986 35.3438H33.8923C34.0036 34.3125 34.6364 33.7559 35.4567 33.7559Z" fill="#7D7F88"/>
</svg>
