<svg width="40" height="42" viewBox="0 0 40 42" fill="none" xmlns="http://www.w3.org/2000/svg">
<path d="M26.34 14.13L24.16 12.38C23.85 12.14 23.46 12 23.06 12H20.75V9H25.22C26.19 9 26.97 8.22 26.97 7.25V3.75C26.97 2.78 26.19 2 25.22 2H16.96C16.57 2 16.18 2.14 15.87 2.38L13.68 4.13C12.81 4.83 12.81 6.17 13.68 6.87L15.87 8.62C16.18 8.86 16.57 9 16.96 9H19.25V12H14.8C13.83 12 13.05 12.78 13.05 13.75V17.25C13.05 18.22 13.83 19 14.8 19H19.25V21.25H17C16.59 21.25 16.25 21.59 16.25 22C16.25 22.41 16.59 22.75 17 22.75H23C23.41 22.75 23.75 22.41 23.75 22C23.75 21.59 23.41 21.25 23 21.25H20.75V19H23.06C23.46 19 23.85 18.86 24.16 18.62L26.34 16.87C27.22 16.17 27.22 14.83 26.34 14.13Z" fill="url(#paint0_linear_44_2764)"/>
<path d="M1.13117 39H6.60383V37.7285H2.64289V35.3203H6.38703V34.0957H2.64289V31.8164H6.60383V30.5449H1.13117V39ZM7.25867 39H8.81727L10.1005 36.7734H10.1356L11.4247 39H13.0184L11.038 35.8594L13.036 32.7891H11.4423L10.2059 34.9688H10.1708L8.92273 32.7891H7.28211L9.26844 35.9004L7.25867 39ZM13.7202 41.0508H15.1791V37.9512H15.2084C15.56 38.6777 16.269 39.123 17.1538 39.123C18.7123 39.123 19.7084 37.8926 19.7084 35.9004V35.8945C19.7084 33.8906 18.7123 32.6602 17.1362 32.6602C16.2455 32.6602 15.5659 33.1172 15.2084 33.8613H15.1791V32.7891H13.7202V41.0508ZM16.7026 37.8926C15.8002 37.8926 15.1674 37.1133 15.1674 35.9004V35.8945C15.1674 34.6758 15.8002 33.8906 16.7026 33.8906C17.6342 33.8906 18.2202 34.6523 18.2202 35.8945V35.9004C18.2202 37.125 17.6342 37.8926 16.7026 37.8926ZM20.627 39H22.0859V30.5449H20.627V39ZM26.0162 39.123C27.8384 39.123 29.022 37.9102 29.022 35.8945V35.8828C29.022 33.8789 27.8209 32.6602 26.0103 32.6602C24.2056 32.6602 23.0103 33.8906 23.0103 35.8828V35.8945C23.0103 37.9043 24.188 39.123 26.0162 39.123ZM26.022 37.9453C25.0904 37.9453 24.4986 37.2012 24.4986 35.8945V35.8828C24.4986 34.5938 25.1021 33.8438 26.0103 33.8438C26.9361 33.8438 27.5338 34.5879 27.5338 35.8828V35.8945C27.5338 37.1953 26.942 37.9453 26.022 37.9453ZM29.8995 39H31.3585V35.3965C31.3585 34.4766 31.8566 33.9551 32.6827 33.9551C32.9288 33.9551 33.1515 33.9902 33.2745 34.0371V32.7188C33.1632 32.6895 32.9933 32.6602 32.8116 32.6602C32.0968 32.6602 31.5812 33.1113 31.3878 33.8613H31.3585V32.7891H29.8995V39ZM36.4606 39.123C38.0837 39.123 38.9977 38.1621 39.1911 37.207L39.2087 37.1426H37.8434L37.8317 37.1836C37.6911 37.5996 37.2165 37.9863 36.4899 37.9863C35.5407 37.9863 34.943 37.3418 34.9196 36.252H39.2673V35.7832C39.2673 33.9082 38.1657 32.6602 36.3903 32.6602C34.6149 32.6602 33.4723 33.9492 33.4723 35.9062V35.9121C33.4723 37.8867 34.5973 39.123 36.4606 39.123ZM36.4079 33.8027C37.1813 33.8027 37.7438 34.2949 37.8493 35.2793H34.9372C35.0544 34.3242 35.6345 33.8027 36.4079 33.8027Z" fill="url(#paint1_linear_44_2764)"/>
<defs>
<linearGradient id="paint0_linear_44_2764" x1="13.0275" y1="3.07328" x2="31.0528" y2="15.4358" gradientUnits="userSpaceOnUse">
<stop stop-color="#917AFD"/>
<stop offset="1" stop-color="#6246EA"/>
</linearGradient>
<linearGradient id="paint1_linear_44_2764" x1="-3.05642e-07" y1="28.7241" x2="8.01347" y2="52.0438" gradientUnits="userSpaceOnUse">
<stop stop-color="#917AFD"/>
<stop offset="1" stop-color="#6246EA"/>
</linearGradient>
</defs>
</svg>
