<svg width="25" height="42" viewBox="0 0 25 42" fill="none" xmlns="http://www.w3.org/2000/svg">
<path d="M9 19H8.5C4.5 19 2.5 18 2.5 13V8C2.5 4 4.5 2 8.5 2H16.5C20.5 2 22.5 4 22.5 8V13C22.5 17 20.5 19 16.5 19H16C15.69 19 15.39 19.15 15.2 19.4L13.7 21.4C13.04 22.28 11.96 22.28 11.3 21.4L9.8 19.4C9.64 19.18 9.27 19 9 19Z" stroke="#7D7F88" stroke-width="1.5" stroke-miterlimit="10" stroke-linecap="round" stroke-linejoin="round"/>
<path d="M7.5 8H17.5" stroke="#7D7F88" stroke-width="1.5" stroke-linecap="round" stroke-linejoin="round"/>
<path d="M7.5 13H13.5" stroke="#7D7F88" stroke-width="1.5" stroke-linecap="round" stroke-linejoin="round"/>
<path d="M4.43961 39.1406C6.30875 39.1406 7.70914 38.0098 7.97281 36.3281L7.97867 36.2695H6.67789L6.66031 36.3223C6.34391 37.3945 5.56461 37.9805 4.43961 37.9805C2.87516 37.9805 1.86148 36.7266 1.86148 34.7695V34.7637C1.86148 32.8066 2.8693 31.5645 4.43961 31.5645C5.57633 31.5645 6.36148 32.168 6.64273 33.1582L6.67789 33.2754H7.97867L7.96695 33.2227C7.70328 31.5527 6.30289 30.4043 4.43961 30.4043C2.04313 30.4043 0.519688 32.0801 0.519688 34.7637V34.7695C0.519688 37.4531 2.04313 39.1406 4.43961 39.1406ZM9.00266 39H10.2683V35.4316C10.2683 34.4707 10.8484 33.8027 11.7214 33.8027C12.612 33.8027 13.1277 34.4121 13.1277 35.4316V39H14.3933V35.1914C14.3933 33.7031 13.5261 32.7188 12.2077 32.7188C11.2878 32.7188 10.6257 33.1348 10.2976 33.8496H10.2683V30.5449H9.00266V39ZM17.3743 39.1113C18.1888 39.1113 18.9036 38.6895 19.261 38.0273H19.2845V39H20.5559V34.752C20.5559 33.5156 19.6009 32.7188 18.095 32.7188C16.5774 32.7188 15.6575 33.5332 15.5696 34.5938L15.5638 34.6582H16.7591L16.7708 34.6055C16.8763 34.1133 17.3274 33.7676 18.0598 33.7676C18.845 33.7676 19.2845 34.1777 19.2845 34.8574V35.3203L17.6087 35.4199C16.1497 35.5078 15.3177 36.1641 15.3177 37.2363V37.248C15.3177 38.3555 16.1438 39.1113 17.3743 39.1113ZM16.595 37.2188V37.207C16.595 36.6855 17.0169 36.3516 17.7786 36.3047L19.2845 36.2109V36.6914C19.2845 37.4941 18.6106 38.0977 17.72 38.0977C17.0403 38.0977 16.595 37.7578 16.595 37.2188ZM23.8885 39.123C24.1463 39.123 24.3866 39.0938 24.533 39.0703V38.0918C24.4393 38.1035 24.328 38.1152 24.1932 38.1152C23.66 38.1152 23.3787 37.9277 23.3787 37.3008V33.8438H24.533V32.8359H23.3787V31.2305H22.0838V32.8359H21.1991V33.8438H22.0838V37.377C22.0838 38.6074 22.6698 39.123 23.8885 39.123Z" fill="#7D7F88"/>
</svg>
