<svg width="26" height="42" viewBox="0 0 26 42" fill="none" xmlns="http://www.w3.org/2000/svg">
<path d="M18 2H8C5.24 2 3 4.23 3 6.98V12.96V13.96C3 16.71 5.24 18.94 8 18.94H9.5C9.77 18.94 10.13 19.12 10.3 19.34L11.8 21.33C12.46 22.21 13.54 22.21 14.2 21.33L15.7 19.34C15.89 19.09 16.19 18.94 16.5 18.94H18C20.76 18.94 23 16.71 23 13.96V6.98C23 4.23 20.76 2 18 2ZM14 13.75H8C7.59 13.75 7.25 13.41 7.25 13C7.25 12.59 7.59 12.25 8 12.25H14C14.41 12.25 14.75 12.59 14.75 13C14.75 13.41 14.41 13.75 14 13.75ZM18 8.75H8C7.59 8.75 7.25 8.41 7.25 8C7.25 7.59 7.59 7.25 8 7.25H18C18.41 7.25 18.75 7.59 18.75 8C18.75 8.41 18.41 8.75 18 8.75Z" fill="url(#paint0_linear_44_2909)"/>
<path d="M4.6818 39.1465C6.62711 39.1465 8.06266 37.9453 8.27945 36.2109L8.29117 36.1523H6.80875L6.79117 36.2109C6.51578 37.2539 5.75992 37.834 4.6818 37.834C3.21109 37.834 2.26188 36.6504 2.26188 34.7695V34.7637C2.26188 32.8887 3.20523 31.7109 4.6818 31.7109C5.78336 31.7109 6.5275 32.3145 6.77359 33.2812L6.80289 33.3926H8.28531L8.27945 33.334C8.0568 31.6113 6.62711 30.3984 4.6818 30.3984C2.25602 30.3984 0.715 32.0625 0.715 34.7637V34.7695C0.715 37.4707 2.25016 39.1465 4.6818 39.1465ZM9.27414 39H10.7331V35.4199C10.7331 34.5176 11.2722 33.8906 12.0984 33.8906C12.9362 33.8906 13.4167 34.4648 13.4167 35.4199V39H14.8757V35.1328C14.8757 33.6328 14.0202 32.6602 12.6843 32.6602C11.7527 32.6602 11.0905 33.0879 10.7683 33.832H10.7331V30.5449H9.27414V39ZM17.8274 39.1055C18.6477 39.1055 19.3391 38.6953 19.6966 38.0449H19.7317V39H21.1907V34.7285C21.1907 33.4805 20.1888 32.6602 18.636 32.6602C17.0598 32.6602 16.1048 33.4863 16.0169 34.5879L16.011 34.6582H17.3645L17.3763 34.6055C17.47 34.1484 17.8919 33.8262 18.5833 33.8262C19.3216 33.8262 19.7317 34.207 19.7317 34.834V35.2617L18.1087 35.3613C16.6028 35.4551 15.7473 36.1172 15.7473 37.2188V37.2305C15.7473 38.3379 16.5852 39.1055 17.8274 39.1055ZM17.2005 37.1719V37.166C17.2005 36.6738 17.593 36.3633 18.3138 36.3164L19.7317 36.2285V36.6973C19.7317 37.4355 19.0989 37.9922 18.261 37.9922C17.6223 37.9922 17.2005 37.6816 17.2005 37.1719ZM24.617 39.123C24.91 39.123 25.1678 39.0938 25.3377 39.0703V37.9746C25.2381 37.9805 25.1268 37.998 24.9862 37.998C24.453 37.998 24.1834 37.8047 24.1834 37.1953V33.9141H25.3377V32.7891H24.1834V31.2129H22.701V32.7891H21.8221V33.9141H22.701V37.3184C22.701 38.5957 23.3162 39.123 24.617 39.123Z" fill="url(#paint1_linear_44_2909)"/>
<defs>
<linearGradient id="paint0_linear_44_2909" x1="3" y1="3.03397" x2="21.6112" y2="21.9993" gradientUnits="userSpaceOnUse">
<stop stop-color="#917AFD"/>
<stop offset="1" stop-color="#6246EA"/>
</linearGradient>
<linearGradient id="paint1_linear_44_2909" x1="-1.98667e-07" y1="28.7241" x2="10.7732" y2="49.102" gradientUnits="userSpaceOnUse">
<stop stop-color="#917AFD"/>
<stop offset="1" stop-color="#6246EA"/>
</linearGradient>
</defs>
</svg>
