<svg width="33" height="42" viewBox="0 0 33 42" fill="none" xmlns="http://www.w3.org/2000/svg">
<path d="M17.12 20.81C16.78 20.93 16.22 20.93 15.88 20.81C12.98 19.82 6.5 15.69 6.5 8.68998C6.5 5.59998 8.99 3.09998 12.06 3.09998C13.88 3.09998 15.49 3.97998 16.5 5.33998C17.51 3.97998 19.13 3.09998 20.94 3.09998C24.01 3.09998 26.5 5.59998 26.5 8.68998C26.5 15.69 20.02 19.82 17.12 20.81Z" stroke="#7D7F88" stroke-width="1.5" stroke-linecap="round" stroke-linejoin="round"/>
<path d="M4.06922 39.1406C6.07313 39.1406 7.29188 38.1621 7.29188 36.6211V36.6152C7.29188 35.3086 6.54188 34.5996 4.79578 34.2305L3.87 34.0371C2.81531 33.8086 2.33484 33.4219 2.33484 32.7891V32.7832C2.33484 32.0449 3.00281 31.5469 4.05164 31.541C5.05359 31.541 5.73328 32.0156 5.85047 32.8008L5.85633 32.8828H7.13367L7.12781 32.7832C7.03992 31.3652 5.83289 30.4043 4.06922 30.4043C2.28211 30.4043 1.01063 31.3945 1.00477 32.8359V32.8418C1.00477 34.0957 1.8075 34.8574 3.4657 35.209L4.38563 35.4023C5.50477 35.6484 5.96766 36.0176 5.96766 36.6973V36.7031C5.96766 37.4941 5.25281 38.0039 4.12195 38.0039C2.99109 38.0039 2.2118 37.5176 2.09461 36.7383L2.08289 36.6621H0.805548L0.811407 36.75C0.916876 38.2383 2.17078 39.1406 4.06922 39.1406ZM10.0737 39.1113C10.8881 39.1113 11.603 38.6895 11.9604 38.0273H11.9838V39H13.2553V34.752C13.2553 33.5156 12.3002 32.7188 10.7944 32.7188C9.2768 32.7188 8.35688 33.5332 8.26899 34.5938L8.26313 34.6582H9.45844L9.47016 34.6055C9.57563 34.1133 10.0268 33.7676 10.7592 33.7676C11.5444 33.7676 11.9838 34.1777 11.9838 34.8574V35.3203L10.308 35.4199C8.84906 35.5078 8.01703 36.1641 8.01703 37.2363V37.248C8.01703 38.3555 8.8432 39.1113 10.0737 39.1113ZM9.29438 37.2188V37.207C9.29438 36.6855 9.71625 36.3516 10.478 36.3047L11.9838 36.2109V36.6914C11.9838 37.4941 11.31 38.0977 10.4194 38.0977C9.73969 38.0977 9.29438 37.7578 9.29438 37.2188ZM16.1074 39H17.4668L19.6758 32.8359H18.3574L16.8105 37.7637H16.7813L15.2344 32.8359H13.8867L16.1074 39ZM22.7388 39.123C24.233 39.123 25.1822 38.2324 25.3814 37.2539L25.3931 37.1895H24.192L24.1744 37.2363C24.0162 37.6992 23.5181 38.0859 22.7681 38.0859C21.7603 38.0859 21.1216 37.4062 21.0982 36.2402H25.4634V35.8125C25.4634 33.9609 24.4029 32.7188 22.6744 32.7188C20.9459 32.7188 19.8326 34.0078 19.8326 35.9355V35.9414C19.8326 37.8867 20.9283 39.123 22.7388 39.123ZM22.6802 33.7559C23.5064 33.7559 24.1041 34.2773 24.2095 35.3438H21.1158C21.2271 34.3125 21.8599 33.7559 22.6802 33.7559ZM28.6905 39.123C29.5753 39.123 30.255 38.6777 30.6241 37.957H30.6476V39H31.9191V30.5449H30.6476V33.8848H30.6241C30.255 33.1582 29.5519 32.7188 28.6788 32.7188C27.132 32.7188 26.1124 33.9492 26.1124 35.9121V35.918C26.1124 37.8809 27.1202 39.123 28.6905 39.123ZM29.0245 38.0332C28.0226 38.0332 27.4073 37.2305 27.4073 35.918V35.9121C27.4073 34.6113 28.0284 33.8027 29.0245 33.8027C29.9738 33.8027 30.6534 34.6348 30.6534 35.9121V35.918C30.6534 37.2012 29.9796 38.0332 29.0245 38.0332Z" fill="#7D7F88"/>
</svg>
