<svg width="33" height="42" viewBox="0 0 33 42" fill="none" xmlns="http://www.w3.org/2000/svg">
<path d="M20.94 3.10001C19.13 3.10001 17.51 3.98001 16.5 5.33001C15.49 3.98001 13.87 3.10001 12.06 3.10001C8.99 3.10001 6.5 5.60001 6.5 8.69001C6.5 9.88001 6.69 10.98 7.02 12C8.6 17 13.47 19.99 15.88 20.81C16.22 20.93 16.78 20.93 17.12 20.81C19.53 19.99 24.4 17 25.98 12C26.31 10.98 26.5 9.88001 26.5 8.69001C26.5 5.60001 24.01 3.10001 20.94 3.10001Z" fill="url(#paint0_linear_44_3058)"/>
<path d="M3.77625 39.1465C5.83875 39.1465 7.08094 38.1445 7.08094 36.5684V36.5625C7.08094 35.2441 6.31336 34.5293 4.55555 34.166L3.64149 33.9785C2.62195 33.7676 2.15906 33.416 2.15906 32.8184V32.8125C2.15906 32.1387 2.7743 31.6758 3.76453 31.6699C4.71375 31.6699 5.36414 32.1094 5.46375 32.8477L5.47547 32.918H6.92274L6.91688 32.8184C6.82899 31.3711 5.62195 30.3984 3.77625 30.3984C1.95399 30.3984 0.647345 31.4062 0.641485 32.8945V32.9004C0.641485 34.1602 1.4618 34.9336 3.12586 35.2793L4.03406 35.4668C5.12391 35.6953 5.56336 36.0352 5.56336 36.668V36.6738C5.56336 37.4004 4.89539 37.875 3.82899 37.875C2.76844 37.875 2.0243 37.4238 1.91297 36.6973L1.90125 36.627H0.453985L0.459845 36.7148C0.559454 38.2324 1.8368 39.1465 3.77625 39.1465ZM9.8393 39.1055C10.6596 39.1055 11.351 38.6953 11.7084 38.0449H11.7436V39H13.2026V34.7285C13.2026 33.4805 12.2006 32.6602 10.6479 32.6602C9.07172 32.6602 8.11664 33.4863 8.02875 34.5879L8.02289 34.6582H9.37641L9.38813 34.6055C9.48188 34.1484 9.90375 33.8262 10.5952 33.8262C11.3334 33.8262 11.7436 34.207 11.7436 34.834V35.2617L10.1205 35.3613C8.61469 35.4551 7.75922 36.1172 7.75922 37.2188V37.2305C7.75922 38.3379 8.59711 39.1055 9.8393 39.1055ZM9.21234 37.1719V37.166C9.21234 36.6738 9.60492 36.3633 10.3256 36.3164L11.7436 36.2285V36.6973C11.7436 37.4355 11.1108 37.9922 10.2729 37.9922C9.63422 37.9922 9.21234 37.6816 9.21234 37.1719ZM15.9727 39H17.5781L19.7637 32.7891H18.2402L16.8047 37.6465H16.7695L15.3281 32.7891H13.7754L15.9727 39ZM22.8853 39.123C24.5084 39.123 25.4224 38.1621 25.6158 37.207L25.6334 37.1426H24.2681L24.2564 37.1836C24.1158 37.5996 23.6412 37.9863 22.9146 37.9863C21.9654 37.9863 21.3677 37.3418 21.3443 36.252H25.692V35.7832C25.692 33.9082 24.5904 32.6602 22.815 32.6602C21.0396 32.6602 19.897 33.9492 19.897 35.9062V35.9121C19.897 37.8867 21.022 39.123 22.8853 39.123ZM22.8326 33.8027C23.606 33.8027 24.1685 34.2949 24.274 35.2793H21.3619C21.4791 34.3242 22.0591 33.8027 22.8326 33.8027ZM28.8839 39.123C29.7804 39.123 30.4659 38.6777 30.8175 37.9453H30.8527V39H32.3116V30.5449H30.8527V33.8555H30.8175C30.4659 33.1113 29.757 32.6602 28.878 32.6602C27.3195 32.6602 26.3175 33.8848 26.3175 35.8887V35.8945C26.3175 37.8926 27.3136 39.123 28.8839 39.123ZM29.3234 37.8926C28.3859 37.8926 27.8058 37.1309 27.8058 35.8945V35.8887C27.8058 34.6523 28.3917 33.8906 29.3234 33.8906C30.2198 33.8906 30.8527 34.6758 30.8527 35.8887V35.8945C30.8527 37.1133 30.2257 37.8926 29.3234 37.8926Z" fill="url(#paint1_linear_44_3058)"/>
<defs>
<linearGradient id="paint0_linear_44_3058" x1="6.5" y1="4.0207" x2="22.9256" y2="22.8182" gradientUnits="userSpaceOnUse">
<stop stop-color="#917AFD"/>
<stop offset="1" stop-color="#6246EA"/>
</linearGradient>
<linearGradient id="paint1_linear_44_3058" x1="-2.52155e-07" y1="28.7241" x2="9.25466" y2="50.9427" gradientUnits="userSpaceOnUse">
<stop stop-color="#917AFD"/>
<stop offset="1" stop-color="#6246EA"/>
</linearGradient>
</defs>
</svg>
