<svg width="33" height="42" viewBox="0 0 33 42" fill="none" xmlns="http://www.w3.org/2000/svg">
<path d="M16.66 10.87C16.56 10.86 16.44 10.86 16.33 10.87C13.95 10.79 12.06 8.84 12.06 6.44C12.06 3.99 14.04 2 16.5 2C18.95 2 20.94 3.99 20.94 6.44C20.93 8.84 19.04 10.79 16.66 10.87Z" stroke="#7D7F88" stroke-width="1.5" stroke-linecap="round" stroke-linejoin="round"/>
<path d="M11.66 14.56C9.24 16.18 9.24 18.82 11.66 20.43C14.41 22.27 18.92 22.27 21.67 20.43C24.09 18.81 24.09 16.17 21.67 14.56C18.93 12.73 14.42 12.73 11.66 14.56Z" stroke="#7D7F88" stroke-width="1.5" stroke-linecap="round" stroke-linejoin="round"/>
<path d="M1.07648 39H2.38898V36.1113H4.22297C5.88117 36.1113 7.02961 34.9805 7.02961 33.3281V33.3164C7.02961 31.6582 5.88117 30.5449 4.22297 30.5449H1.07648V39ZM3.89484 31.6523C5.03742 31.6523 5.69367 32.2676 5.69367 33.3223V33.334C5.69367 34.3945 5.03742 35.0098 3.89484 35.0098H2.38898V31.6523H3.89484ZM7.9657 39H9.23133V35.3262C9.23133 34.4062 9.73523 33.873 10.5497 33.873C10.7958 33.873 11.0184 33.9023 11.118 33.9434V32.7656C11.0184 32.748 10.8602 32.7188 10.6786 32.7188C9.97547 32.7188 9.45984 33.1699 9.26063 33.8906H9.23133V32.8359H7.9657V39ZM14.2221 39.123C15.9858 39.123 17.1459 37.9043 17.1459 35.918V35.9062C17.1459 33.9316 15.9741 32.7188 14.2163 32.7188C12.4643 32.7188 11.2983 33.9375 11.2983 35.9062V35.918C11.2983 37.8984 12.4526 39.123 14.2221 39.123ZM14.228 38.0625C13.2377 38.0625 12.5932 37.2832 12.5932 35.918V35.9062C12.5932 34.5586 13.2436 33.7793 14.2163 33.7793C15.2065 33.7793 15.851 34.5586 15.851 35.9062V35.918C15.851 37.2773 15.2182 38.0625 14.228 38.0625ZM18.4336 39H19.7051V33.8438H20.9355V32.8359H19.6816V32.2031C19.6816 31.6582 19.9512 31.3828 20.5195 31.3828C20.6777 31.3828 20.8359 31.3945 20.959 31.4121V30.4746C20.7891 30.4453 20.5078 30.4219 20.25 30.4219C18.9961 30.4219 18.4336 30.9844 18.4336 32.1797V32.8359H17.584V33.8438H18.4336V39ZM22.5572 31.8867C22.9732 31.8867 23.2955 31.5586 23.2955 31.1602C23.2955 30.7559 22.9732 30.4277 22.5572 30.4277C22.147 30.4277 21.8189 30.7559 21.8189 31.1602C21.8189 31.5586 22.147 31.8867 22.5572 31.8867ZM21.9244 39H23.19V32.8359H21.9244V39ZM24.4835 39H25.7491V30.5449H24.4835V39ZM29.6208 39.123C31.1149 39.123 32.0641 38.2324 32.2634 37.2539L32.2751 37.1895H31.0739L31.0563 37.2363C30.8981 37.6992 30.4001 38.0859 29.6501 38.0859C28.6423 38.0859 28.0036 37.4062 27.9802 36.2402H32.3454V35.8125C32.3454 33.9609 31.2848 32.7188 29.5563 32.7188C27.8278 32.7188 26.7145 34.0078 26.7145 35.9355V35.9414C26.7145 37.8867 27.8102 39.123 29.6208 39.123ZM29.5622 33.7559C30.3884 33.7559 30.986 34.2773 31.0915 35.3438H27.9977C28.1091 34.3125 28.7419 33.7559 29.5622 33.7559Z" fill="#7D7F88"/>
</svg>
