<svg width="34" height="42" viewBox="0 0 34 42" fill="none" xmlns="http://www.w3.org/2000/svg">
<path d="M17 2C14.38 2 12.25 4.13 12.25 6.75C12.25 9.32 14.26 11.4 16.88 11.49C16.96 11.48 17.04 11.48 17.1 11.49C17.12 11.49 17.13 11.49 17.15 11.49C17.16 11.49 17.16 11.49 17.17 11.49C19.73 11.4 21.74 9.32 21.75 6.75C21.75 4.13 19.62 2 17 2Z" fill="url(#paint0_linear_44_3214)"/>
<path d="M22.08 14.15C19.29 12.29 14.74 12.29 11.93 14.15C10.66 15 9.95996 16.15 9.95996 17.38C9.95996 18.61 10.66 19.75 11.92 20.59C13.32 21.53 15.16 22 17 22C18.84 22 20.68 21.53 22.08 20.59C23.34 19.74 24.04 18.6 24.04 17.36C24.03 16.13 23.34 14.99 22.08 14.15Z" fill="url(#paint1_linear_44_3214)"/>
<path d="M1.00813 39H2.51984V36.2051H4.26594C5.97688 36.2051 7.14289 35.0684 7.14289 33.3809V33.3691C7.14289 31.6758 5.97688 30.5449 4.26594 30.5449H1.00813V39ZM3.89094 31.7812C4.97492 31.7812 5.60773 32.3613 5.60773 33.375V33.3867C5.60773 34.4004 4.97492 34.9863 3.89094 34.9863H2.51984V31.7812H3.89094ZM8.04383 39H9.50281V35.3965C9.50281 34.4766 10.0009 33.9551 10.827 33.9551C11.0731 33.9551 11.2958 33.9902 11.4188 34.0371V32.7188C11.3075 32.6895 11.1376 32.6602 10.9559 32.6602C10.2411 32.6602 9.72547 33.1113 9.53211 33.8613H9.50281V32.7891H8.04383V39ZM14.6225 39.123C16.4448 39.123 17.6284 37.9102 17.6284 35.8945V35.8828C17.6284 33.8789 16.4272 32.6602 14.6166 32.6602C12.812 32.6602 11.6166 33.8906 11.6166 35.8828V35.8945C11.6166 37.9043 12.7944 39.123 14.6225 39.123ZM14.6284 37.9453C13.6967 37.9453 13.1049 37.2012 13.1049 35.8945V35.8828C13.1049 34.5938 13.7084 33.8438 14.6166 33.8438C15.5424 33.8438 16.1401 34.5879 16.1401 35.8828V35.8945C16.1401 37.1953 15.5483 37.9453 14.6284 37.9453ZM18.9102 39H20.3691V33.9141H21.5879V32.7891H20.3398V32.2383C20.3398 31.7344 20.6035 31.4707 21.1719 31.4707C21.3301 31.4707 21.4941 31.4824 21.6113 31.5V30.4805C21.4297 30.4453 21.1191 30.4219 20.832 30.4219C19.4844 30.4219 18.9102 30.9844 18.9102 32.1973V32.7891H18.0605V33.9141H18.9102V39ZM23.2623 31.8984C23.7193 31.8984 24.0709 31.5352 24.0709 31.1016C24.0709 30.6562 23.7193 30.2988 23.2623 30.2988C22.8052 30.2988 22.4478 30.6562 22.4478 31.1016C22.4478 31.5352 22.8052 31.8984 23.2623 31.8984ZM22.5298 39H23.9888V32.7891H22.5298V39ZM25.212 39H26.671V30.5449H25.212V39ZM30.5837 39.123C32.2067 39.123 33.1208 38.1621 33.3141 37.207L33.3317 37.1426H31.9665L31.9548 37.1836C31.8141 37.5996 31.3395 37.9863 30.613 37.9863C29.6637 37.9863 29.0661 37.3418 29.0427 36.252H33.3903V35.7832C33.3903 33.9082 32.2887 32.6602 30.5134 32.6602C28.738 32.6602 27.5954 33.9492 27.5954 35.9062V35.9121C27.5954 37.8867 28.7204 39.123 30.5837 39.123ZM30.5309 33.8027C31.3044 33.8027 31.8669 34.2949 31.9723 35.2793H29.0602C29.1774 34.3242 29.7575 33.8027 30.5309 33.8027Z" fill="url(#paint2_linear_44_3214)"/>
<defs>
<linearGradient id="paint0_linear_44_3214" x1="12.25" y1="2.49086" x2="21.0853" y2="11.4993" gradientUnits="userSpaceOnUse">
<stop stop-color="#917AFD"/>
<stop offset="1" stop-color="#6246EA"/>
</linearGradient>
<linearGradient id="paint1_linear_44_3214" x1="9.95996" y1="13.2332" x2="17.801" y2="25.3961" gradientUnits="userSpaceOnUse">
<stop stop-color="#917AFD"/>
<stop offset="1" stop-color="#6246EA"/>
</linearGradient>
<linearGradient id="paint2_linear_44_3214" x1="-2.59796e-07" y1="28.7241" x2="9.0601" y2="51.1347" gradientUnits="userSpaceOnUse">
<stop stop-color="#917AFD"/>
<stop offset="1" stop-color="#6246EA"/>
</linearGradient>
</defs>
</svg>
