<svg width="22" height="22" viewBox="0 0 22 22" fill="none" xmlns="http://www.w3.org/2000/svg">
<g clip-path="url(#clip0_44_2356)">
<path d="M21.9895 11.2058C21.9895 10.3045 21.9146 9.64674 21.7526 8.96466H11.2191V13.0328H17.4021C17.2775 14.0438 16.6043 15.5663 15.1084 16.5894L15.0874 16.7256L18.4179 19.2466L18.6487 19.2691C20.7678 17.3568 21.9895 14.5432 21.9895 11.2058Z" fill="#4285F4"/>
<path d="M11.2187 21.9244C14.2479 21.9244 16.7909 20.95 18.6483 19.2691L15.108 16.5894C14.1606 17.235 12.8891 17.6857 11.2187 17.6857C8.25193 17.6857 5.73387 15.7734 4.83626 13.1303L4.70469 13.1412L1.24158 15.76L1.19629 15.883C3.0412 19.464 6.83078 21.9244 11.2187 21.9244Z" fill="#34A853"/>
<path d="M4.83665 13.1303C4.5998 12.4482 4.46273 11.7174 4.46273 10.9622C4.46273 10.207 4.5998 9.47621 4.82419 8.79413L4.81791 8.64886L1.31141 5.98804L1.19668 6.04136C0.436305 7.52737 0 9.19609 0 10.9622C0 12.7284 0.436305 14.397 1.19668 15.883L4.83665 13.1303Z" fill="#FBBC05"/>
<path d="M11.2187 4.23869C13.3254 4.23869 14.7465 5.12785 15.5568 5.87089L18.7231 2.85018C16.7785 1.08405 14.2479 0 11.2187 0C6.83078 0 3.0412 2.46039 1.19629 6.04135L4.8238 8.79412C5.73387 6.15102 8.25193 4.23869 11.2187 4.23869Z" fill="#EB4335"/>
</g>
<defs>
<clipPath id="clip0_44_2356">
<rect width="22" height="22" fill="white"/>
</clipPath>
</defs>
</svg>
