<svg width="20" height="24" viewBox="0 0 20 24" fill="none" xmlns="http://www.w3.org/2000/svg">
<g clip-path="url(#clip0_44_2372)">
<path d="M16.3114 12.7507C16.2842 9.71587 18.7901 8.2589 18.9034 8.18787C17.4933 6.12486 15.2988 5.84223 14.5159 5.80898C12.6494 5.62006 10.872 6.90774 9.92592 6.90774C8.97981 6.90774 7.51681 5.83619 5.96917 5.86642C3.93185 5.89664 2.05624 7.04982 1.00735 8.87252C-1.10705 12.5406 0.467795 17.977 2.52628 20.9544C3.53436 22.4098 4.73438 24.0497 6.31224 23.9892C7.83268 23.9288 8.407 23.0068 10.2418 23.0068C12.0766 23.0068 12.5935 23.9892 14.2001 23.9605C15.8339 23.9288 16.8707 22.4733 17.8712 21.0133C19.0259 19.3236 19.5035 17.6883 19.5307 17.6022C19.4944 17.5871 16.3447 16.3795 16.3114 12.7507Z" fill="#B3B3B3"/>
<path d="M13.2936 3.83938C14.1309 2.82525 14.6961 1.41513 14.5404 0.00961304C13.3343 0.0580291 11.8744 0.813677 11.0084 1.8278C10.233 2.72409 9.55293 4.15984 9.73723 5.53674C11.0824 5.64103 12.4562 4.85202 13.2936 3.83938Z" fill="#B3B3B3"/>
</g>
<defs>
<clipPath id="clip0_44_2372">
<rect width="19.5362" height="24" fill="white"/>
</clipPath>
</defs>
</svg>
