<svg width="18" height="24" viewBox="0 0 18 24" fill="none" xmlns="http://www.w3.org/2000/svg">
<path d="M4.9431 20.6522L5.29739 18.4018L4.5082 18.3835H0.739716L3.35862 1.77796C3.36642 1.72722 3.39219 1.68097 3.43123 1.64765C3.47028 1.61432 3.52 1.59614 3.57133 1.59641H9.92552C12.035 1.59641 13.4908 2.03538 14.2508 2.90179C14.6072 3.30825 14.8341 3.73299 14.9438 4.20041C15.059 4.69086 15.061 5.27683 14.9486 5.9915L14.9405 6.04367V6.5016L15.2968 6.70347C15.5688 6.84129 15.8133 7.02771 16.0182 7.25354C16.3231 7.60105 16.5202 8.04273 16.6035 8.56638C16.6896 9.10492 16.6611 9.74576 16.5202 10.4713C16.3576 11.3059 16.0948 12.0327 15.7398 12.6275C15.4266 13.1603 15.0055 13.6218 14.5035 13.9823C14.032 14.317 13.4718 14.571 12.8384 14.7336C12.2247 14.8935 11.5249 14.9741 10.7574 14.9741H10.2629C9.90926 14.9741 9.56581 15.1014 9.2962 15.3297C9.02697 15.5605 8.84837 15.8792 8.7922 16.2293L8.75494 16.4319L8.12901 20.3982L8.10055 20.5438C8.0931 20.5899 8.08023 20.6129 8.06126 20.6285C8.04289 20.6435 8.01997 20.6519 7.99623 20.6522H4.9431Z" fill="#253B80"/>
<path d="M15.6046 6.09659C15.5857 6.21785 15.564 6.34181 15.5396 6.46917C14.7016 10.7715 11.8348 12.2577 8.17336 12.2577H6.3091C5.86132 12.2577 5.484 12.5829 5.41423 13.0246L4.45974 19.078L4.18945 20.7939C4.17868 20.8619 4.1828 20.9315 4.2015 20.9979C4.22021 21.0642 4.25306 21.1257 4.29781 21.1781C4.34255 21.2305 4.39812 21.2726 4.46069 21.3014C4.52326 21.3303 4.59135 21.3453 4.66026 21.3453H7.96674C8.35829 21.3453 8.6909 21.0608 8.75255 20.6747L8.78507 20.5067L9.40761 16.5559L9.44758 16.3392C9.50855 15.9517 9.84184 15.6672 10.2334 15.6672H10.7279C13.9314 15.6672 16.4392 14.3665 17.1722 10.6028C17.4784 9.03049 17.3199 7.71765 16.5097 6.79433C16.2529 6.5087 15.9462 6.27226 15.6046 6.09659Z" fill="#179BD7"/>
<path d="M14.7265 5.74648C14.4589 5.66908 14.1867 5.60867 13.9115 5.56561C13.3678 5.48204 12.8182 5.44195 12.2681 5.44571H7.28773C7.09819 5.44556 6.91485 5.51323 6.77085 5.63647C6.62686 5.75972 6.53171 5.93042 6.5026 6.11771L5.44311 12.8282L5.41263 13.024C5.44563 12.8104 5.55401 12.6156 5.71815 12.475C5.88228 12.3343 6.09134 12.2571 6.3075 12.2572H8.17176C11.8332 12.2572 14.7001 10.7702 15.538 6.46861C15.5631 6.34126 15.5841 6.21729 15.6031 6.09603C15.3819 5.98007 15.1515 5.88286 14.9141 5.80542C14.8519 5.78477 14.7893 5.76512 14.7265 5.74648Z" fill="#222D65"/>
<path d="M6.51265 6.11844C6.54151 5.93109 6.63661 5.76032 6.78068 5.63713C6.92475 5.51395 7.10822 5.44653 7.29778 5.44711H12.2782C12.8682 5.44711 13.4189 5.48573 13.9216 5.56702C14.2617 5.62047 14.5972 5.70043 14.9248 5.80615C15.1721 5.88811 15.4017 5.98499 15.6138 6.09676C15.8631 4.50686 15.6117 3.42434 14.7521 2.44411C13.8044 1.36498 12.0939 0.902985 9.90516 0.902985H3.55097C3.10387 0.902985 2.72249 1.22815 2.65339 1.6705L0.00671303 18.4468C-0.00561475 18.5247 -0.00092445 18.6043 0.0204613 18.6802C0.041847 18.7561 0.0794207 18.8265 0.130598 18.8865C0.181775 18.9465 0.24534 18.9947 0.316922 19.0278C0.388504 19.0609 0.466403 19.078 0.545261 19.0781H4.4682L5.45316 12.829L6.51265 6.11844Z" fill="#253B80"/>
</svg>
